<svg xmlns="http://www.w3.org/2000/svg" viewBox="0 0 760 400" width="760" height="400" role="img" aria-labelledby="ttl desc">
<title id="ttl">12 nm territorial sea: observed over expected by distance band</title>
<desc id="desc">Dot plot. Parity is 1.0. Candidates and the AIS-explained control on the same bands and the same searched-water denominator. Marker area is proportional to detection count. The figures are in the table beside this image.</desc>
<style>
  .s{fill:#fcfcfb}.ink{fill:#0b0b0b}.ink2{fill:#52514e}
  .gr{stroke:#d8d7d2}.cd{fill:#2a78d6}.ct{fill:#eb6834}
  .cds{stroke:#2a78d6}.cts{stroke:#eb6834}.ring{stroke:#fcfcfb}
  @media (prefers-color-scheme:dark){
   .s{fill:#1a1a19}.ink{fill:#ffffff}.ink2{fill:#c3c2b7}
   .gr{stroke:#3a3a38}.cd{fill:#3987e5}.ct{fill:#d95926}
   .cds{stroke:#3987e5}.cts{stroke:#d95926}
   .ring{stroke:#1a1a19}}
  text{font:13px system-ui,-apple-system,Segoe UI,sans-serif}
  .sm{font-size:11px}.bd{font-weight:600}
</style>
<rect class="s" width="760" height="400"/>
<line class="gr" x1="62" x2="594" y1="344.0" y2="344.0" stroke-width="1" stroke-dasharray="2 4" opacity="0.45"/>
<text class="ink2 sm" x="52" y="348.0" text-anchor="end">0.00</text>
<line class="gr" x1="62" x2="594" y1="303.7" y2="303.7" stroke-width="1" stroke-dasharray="2 4" opacity="0.45"/>
<text class="ink2 sm" x="52" y="307.7" text-anchor="end">0.25</text>
<line class="gr" x1="62" x2="594" y1="263.5" y2="263.5" stroke-width="1" stroke-dasharray="2 4" opacity="0.45"/>
<text class="ink2 sm" x="52" y="267.5" text-anchor="end">0.50</text>
<line class="gr" x1="62" x2="594" y1="223.2" y2="223.2" stroke-width="1" stroke-dasharray="2 4" opacity="0.45"/>
<text class="ink2 sm" x="52" y="227.2" text-anchor="end">0.75</text>
<line class="gr" x1="62" x2="594" y1="182.9" y2="182.9" stroke-width="2" opacity="0.9"/>
<text class="ink2 sm" x="52" y="186.9" text-anchor="end">1.00</text>
<line class="gr" x1="62" x2="594" y1="142.6" y2="142.6" stroke-width="1" stroke-dasharray="2 4" opacity="0.45"/>
<text class="ink2 sm" x="52" y="146.6" text-anchor="end">1.25</text>
<line class="gr" x1="62" x2="594" y1="102.4" y2="102.4" stroke-width="1" stroke-dasharray="2 4" opacity="0.45"/>
<text class="ink2 sm" x="52" y="106.4" text-anchor="end">1.50</text>
<line class="gr" x1="62" x2="594" y1="62.1" y2="62.1" stroke-width="1" stroke-dasharray="2 4" opacity="0.45"/>
<text class="ink2 sm" x="52" y="66.1" text-anchor="end">1.75</text>
<text class="ink2 sm" x="68" y="175.9">parity</text>
<text class="ink2 sm" transform="rotate(-90 18 195)" x="18" y="195" text-anchor="middle">observed / expected</text>
<text class="ink2 sm" x="105.5" y="364" text-anchor="middle">0-1 nm</text>
<text class="ink2 sm" x="192.5" y="364" text-anchor="middle">1-2 nm</text>
<text class="ink2 sm" x="279.5" y="364" text-anchor="middle">2-5 nm</text>
<text class="ink2 sm" x="366.5" y="364" text-anchor="middle">5-10 nm</text>
<text class="ink2 sm" x="453.5" y="364" text-anchor="middle">10-25 nm</text>
<text class="ink2 sm" x="540.5" y="364" text-anchor="middle">&gt; 25 nm</text>
<path class="cts" d="M105.5,106.9 L192.5,190.9 L279.5,99.7 L366.5,93.5 L453.5,97.0 L540.5,235.7" fill="none" stroke-width="2" opacity="0.55"/>
<circle class="ct ring" cx="105.5" cy="106.9" r="5.7" stroke-width="2"/>
<circle class="ct ring" cx="192.5" cy="190.9" r="5.3" stroke-width="2"/>
<circle class="ct ring" cx="279.5" cy="99.7" r="6.9" stroke-width="2"/>
<circle class="ct ring" cx="366.5" cy="93.5" r="7.8" stroke-width="2"/>
<circle class="ct ring" cx="453.5" cy="97.0" r="9.3" stroke-width="2"/>
<circle class="ct ring" cx="540.5" cy="235.7" r="10.2" stroke-width="2"/>
<path class="cds" d="M105.5,291.9 L192.5,254.2 L279.5,247.3 L366.5,221.5 L453.5,106.7 L540.5,189.1" fill="none" stroke-width="2" opacity="0.55"/>
<circle class="cd ring" cx="105.5" cy="291.9" r="5.2" stroke-width="2"/>
<circle class="cd ring" cx="192.5" cy="254.2" r="5.6" stroke-width="2"/>
<circle class="cd ring" cx="279.5" cy="247.3" r="6.8" stroke-width="2"/>
<circle class="cd ring" cx="366.5" cy="221.5" r="8.0" stroke-width="2"/>
<circle class="cd ring" cx="453.5" cy="106.7" r="11.9" stroke-width="2"/>
<circle class="cd ring" cx="540.5" cy="189.1" r="15.0" stroke-width="2"/>
<circle class="cd" cx="604" cy="189.1" r="5"/>
<text class="ink sm" x="616" y="193.1">candidates</text>
<circle class="ct" cx="604" cy="235.7" r="5"/>
<text class="ink sm" x="616" y="239.7">AIS-seen control</text>
<text class="ink bd" x="10" y="24">12 nm territorial sea</text>
<text class="ink2 sm" x="10" y="40">shift p 0.7581 candidates, 0.3392 control  ·  2,000 scattered / 400 shift trials  ·  marker area = detections</text>
</svg>